custom-analysis
version=1
nRows=4
nColumns=146
inDegrees=no

This file contains tibia displacement and acting force.

Units are S.I. units (seconds, meters, Newtons, ...)
Angles are in degrees.

endheader
time	APT	SIT	knee_angle	aACL_R_force	pACL_R_force	aPCL_R_force	pPCL_R_force	aMCL_R_force	mMCL_R_force	pMCL_R_force	aLCL_R_force	mLCL_R_force	pLCL_R_force	aPCL_L_force	pPCL_L_force	aMCL_L_force	aLCL_L_force	aACL_R_length	pACL_R_length	aPCL_R_length	pPCL_R_length	aMCL_R_length	mMCL_R_length	pMCL_R_length	aLCL_R_length	mLCL_R_length	pLCL_R_length	aPCL_L_length	pPCL_L_length	aMCL_L_length	aLCL_L_length	aACL_R_strain	pACL_R_strain	aPCL_R_strain	pPCL_R_strain	aMCL_R_strain	mMCL_R_strain	pMCL_R_strain	aLCL_R_strain	mLCL_R_strain	pLCL_R_strain	aPCL_L_strain	pPCL_L_strain	aMCL_L_strain	aLCL_L_strain	femur_lat_meniscii_l.femur_lat_l.force.X	femur_lat_meniscii_l.femur_lat_l.force.Y	femur_lat_meniscii_l.femur_lat_l.force.Z	femur_lat_meniscii_l.femur_lat_l.torque.X	femur_lat_meniscii_l.femur_lat_l.torque.Y	femur_lat_meniscii_l.femur_lat_l.torque.Z	femur_lat_meniscii_l.meniscus_lat_l.force.X	femur_lat_meniscii_l.meniscus_lat_l.force.Y	femur_lat_meniscii_l.meniscus_lat_l.force.Z	femur_lat_meniscii_l.meniscus_lat_l.torque.X	femur_lat_meniscii_l.meniscus_lat_l.torque.Y	femur_lat_meniscii_l.meniscus_lat_l.torque.Z	femur_med_meniscii_l.femur_med_l.force.X	femur_med_meniscii_l.femur_med_l.force.Y	femur_med_meniscii_l.femur_med_l.force.Z	femur_med_meniscii_l.femur_med_l.torque.X	femur_med_meniscii_l.femur_med_l.torque.Y	femur_med_meniscii_l.femur_med_l.torque.Z	femur_med_meniscii_l.meniscus_med_l.force.X	femur_med_meniscii_l.meniscus_med_l.force.Y	femur_med_meniscii_l.meniscus_med_l.force.Z	femur_med_meniscii_l.meniscus_med_l.torque.X	femur_med_meniscii_l.meniscus_med_l.torque.Y	femur_med_meniscii_l.meniscus_med_l.torque.Z	femur_lat_meniscii_r.femur_lat_r.force.X	femur_lat_meniscii_r.femur_lat_r.force.Y	femur_lat_meniscii_r.femur_lat_r.force.Z	femur_lat_meniscii_r.femur_lat_r.torque.X	femur_lat_meniscii_r.femur_lat_r.torque.Y	femur_lat_meniscii_r.femur_lat_r.torque.Z	femur_lat_meniscii_r.meniscus_lat_r.force.X	femur_lat_meniscii_r.meniscus_lat_r.force.Y	femur_lat_meniscii_r.meniscus_lat_r.force.Z	femur_lat_meniscii_r.meniscus_lat_r.torque.X	femur_lat_meniscii_r.meniscus_lat_r.torque.Y	femur_lat_meniscii_r.meniscus_lat_r.torque.Z	femur_med_meniscii_r.femur_med_r.force.X	femur_med_meniscii_r.femur_med_r.force.Y	femur_med_meniscii_r.femur_med_r.force.Z	femur_med_meniscii_r.femur_med_r.torque.X	femur_med_meniscii_r.femur_med_r.torque.Y	femur_med_meniscii_r.femur_med_r.torque.Z	femur_med_meniscii_r.meniscus_med_r.force.X	femur_med_meniscii_r.meniscus_med_r.force.Y	femur_med_meniscii_r.meniscus_med_r.force.Z	femur_med_meniscii_r.meniscus_med_r.torque.X	femur_med_meniscii_r.meniscus_med_r.torque.Y	femur_med_meniscii_r.meniscus_med_r.torque.Z	femur_med_tibia_l.tibia_upper_l.force.X	femur_med_tibia_l.tibia_upper_l.force.Y	femur_med_tibia_l.tibia_upper_l.force.Z	femur_med_tibia_l.tibia_upper_l.torque.X	femur_med_tibia_l.tibia_upper_l.torque.Y	femur_med_tibia_l.tibia_upper_l.torque.Z	femur_med_tibia_l.femur_med_l.force.X	femur_med_tibia_l.femur_med_l.force.Y	femur_med_tibia_l.femur_med_l.force.Z	femur_med_tibia_l.femur_med_l.torque.X	femur_med_tibia_l.femur_med_l.torque.Y	femur_med_tibia_l.femur_med_l.torque.Z	femur_lat_tibia_l.tibia_upper_l.force.X	femur_lat_tibia_l.tibia_upper_l.force.Y	femur_lat_tibia_l.tibia_upper_l.force.Z	femur_lat_tibia_l.tibia_upper_l.torque.X	femur_lat_tibia_l.tibia_upper_l.torque.Y	femur_lat_tibia_l.tibia_upper_l.torque.Z	femur_lat_tibia_l.femur_lat_l.force.X	femur_lat_tibia_l.femur_lat_l.force.Y	femur_lat_tibia_l.femur_lat_l.force.Z	femur_lat_tibia_l.femur_lat_l.torque.X	femur_lat_tibia_l.femur_lat_l.torque.Y	femur_lat_tibia_l.femur_lat_l.torque.Z	femur_med_tibia_r.tibia_upper_r.force.X	femur_med_tibia_r.tibia_upper_r.force.Y	femur_med_tibia_r.tibia_upper_r.force.Z	femur_med_tibia_r.tibia_upper_r.torque.X	femur_med_tibia_r.tibia_upper_r.torque.Y	femur_med_tibia_r.tibia_upper_r.torque.Z	femur_med_tibia_r.femur_med_r.force.X	femur_med_tibia_r.femur_med_r.force.Y	femur_med_tibia_r.femur_med_r.force.Z	femur_med_tibia_r.femur_med_r.torque.X	femur_med_tibia_r.femur_med_r.torque.Y	femur_med_tibia_r.femur_med_r.torque.Z	femur_lat_tibia_r.tibia_upper_r.force.X	femur_lat_tibia_r.tibia_upper_r.force.Y	femur_lat_tibia_r.tibia_upper_r.force.Z	femur_lat_tibia_r.tibia_upper_r.torque.X	femur_lat_tibia_r.tibia_upper_r.torque.Y	femur_lat_tibia_r.tibia_upper_r.torque.Z	femur_lat_tibia_r.femur_lat_r.force.X	femur_lat_tibia_r.femur_lat_r.force.Y	femur_lat_tibia_r.femur_lat_r.force.Z	femur_lat_tibia_r.femur_lat_r.torque.X	femur_lat_tibia_r.femur_lat_r.torque.Y	femur_lat_tibia_r.femur_lat_r.torque.Z	femur_lat_meniscii_force_r	femur_med_meniscii_force_r	femur_lat_tibia_force_r	femur_med_tibia_force_r
      0.37275775	      0.00561214	      0.00120277	     89.99998384	     35.33142840	     11.96153174	    779.69875388	    368.37238421	     10.64220801	      1.00366823	      0.00000000	      0.00000000	      0.00000000	      0.00000000	      0.00000000	      0.00000000	      0.00000001	      0.00000000	      0.03312902	      0.02605753	      0.03621183	      0.03260084	      0.06232898	      0.06011819	      0.05657185	      0.04872229	      0.04304708	      0.03780549	      0.01525851	      0.01651186	      0.06550154	      0.04489616	      0.06848842	      0.03985981	      0.16454344	      0.09077414	      0.03834908	      0.00543023	     -0.00275268	     -0.12960467	     -0.23565083	     -0.27773147	      0.00000079	     -0.32847694	      0.00000060	     -0.00000086	      2.76307435	     50.99597937	     -9.56042239	      5.21997485	     -0.02578839	      1.48581788	     -2.76307435	    -50.99597937	      9.56042239	     -1.74637766	      0.02558040	     -0.48301696	     -3.31599387	     20.97615968	     -3.40468921	      0.94473225	     -0.02138609	     -1.00501789	      3.31599387	    -20.97615968	      3.40468921	      0.28075727	      0.00368718	     -0.29758878	    216.48056065	     -0.93374633	     37.86600711	    -15.27235404	      5.30259372	     87.98096100	   -216.48056065	      0.93374633	    -37.86600711	      0.06325254	     -7.22641319	     -1.07772743	     80.23353743	    -55.81920090	    -12.40817484	      3.95670619	     -1.53028155	     32.34068690	    -80.23353743	     55.81920090	     12.40817484	      0.81008505	      1.57614367	     -1.72405378	      0.00000000	      0.00000000	      0.00000000	      0.00000000	      0.00000000	      0.00000000	      0.00000000	      0.00000000	      0.00000000	      0.00000000	      0.00000000	      0.00000000	      0.00000000	      0.00000000	      0.00000000	      0.00000000	      0.00000000	      0.00000000	      0.00000000	      0.00000000	      0.00000000	      0.00000000	      0.00000000	      0.00000000	   -513.82108969	     22.48763269	    102.67358140	     -0.05780584	      9.85847337	     -2.38913698	    513.82108969	    -22.48763269	   -102.67358140	     41.20050059	     -8.89863180	    208.07398208	    -43.89504603	     -6.99503490	    -12.57965618	      0.25868788	     -1.61431161	     -0.00501730	     43.89504603	      6.99503490	     12.57965618	     -5.28313197	      1.08354909	     17.83228569	    219.76928702	     98.52495380	     46.19473269	    524.46131426
      0.37453433	      0.00561372	      0.00120284	     89.99998384	     35.51719977	     12.15944399	    779.45645754	    368.11215778	     10.63012009	      0.95819583	      0.00000000	      0.00000000	      0.00000000	      0.00000000	      0.00000000	      0.00000000	      0.00000001	      0.00000000	      0.03312987	      0.02605792	      0.03621064	      0.03259988	      0.06233101	      0.06012013	      0.05657363	      0.04871880	      0.04304350	      0.03780178	      0.01525851	      0.01651186	      0.06550154	      0.04489616	      0.06851602	      0.03987531	      0.16450513	      0.09074217	      0.03838282	      0.00546263	     -0.00272115	     -0.12966700	     -0.23571429	     -0.27780231	      0.00000079	     -0.32847694	      0.00000060	     -0.00000086	      2.76307435	     50.99597937	     -9.56042239	      5.21997485	     -0.02578839	      1.48581788	     -2.76307435	    -50.99597937	      9.56042239	     -1.74637766	      0.02558040	     -0.48301696	     -3.31599387	     20.97615968	     -3.40468921	      0.94473225	     -0.02138609	     -1.00501789	      3.31599387	    -20.97615968	      3.40468921	      0.28075727	      0.00368718	     -0.29758878	    216.80470204	     -1.04007623	     37.00894180	    -14.92145211	      5.29936020	     88.11469333	   -216.80470204	      1.04007623	    -37.00894180	      0.05603133	     -7.20079729	     -1.08395620	     80.14111627	    -55.86154343	    -12.83036204	      4.12399089	     -1.53221024	     32.30437978	    -80.14111627	     55.86154343	     12.83036204	      0.81194732	      1.59019505	     -1.72593813	      0.00000000	      0.00000000	      0.00000000	      0.00000000	      0.00000000	      0.00000000	      0.00000000	      0.00000000	      0.00000000	      0.00000000	      0.00000000	      0.00000000	      0.00000000	      0.00000000	      0.00000000	      0.00000000	      0.00000000	      0.00000000	      0.00000000	      0.00000000	      0.00000000	      0.00000000	      0.00000000	      0.00000000	   -512.53992885	     22.63949899	    104.03792023	     -0.05945606	      9.89661994	     -2.39075665	    512.53992885	    -22.63949899	   -104.03792023	     41.74951688	     -8.89491147	    207.55770518	    -44.49033586	     -7.06982174	    -12.59853196	      0.26070284	     -1.63011386	     -0.00590452	     44.49033586	      7.06982174	     12.59853196	     -5.29242918	      1.09630964	     18.07444588	    219.94322530	     98.52780694	     46.77708170	    523.48220068
      0.37631091	      0.00561532	      0.00120282	     89.99998384	     35.40909323	     11.99947599	    779.28374472	    368.09760362	     10.67547458	      1.00573648	      0.00000000	      0.00000000	      0.00000000	      0.00000000	      0.00000000	      0.00000000	      0.00000001	      0.00000000	      0.03313116	      0.02605882	      0.03620939	      0.03259884	      0.06233300	      0.06012201	      0.05657532	      0.04871533	      0.04303992	      0.03779803	      0.01525851	      0.01651186	      0.06550154	      0.04489616	      0.06855747	      0.03991102	      0.16446521	      0.09070731	      0.03841603	      0.00549409	     -0.00269137	     -0.12972901	     -0.23577781	     -0.27787381	      0.00000079	     -0.32847694	      0.00000060	     -0.00000086	      2.76307435	     50.99597937	     -9.56042239	      5.21997485	     -0.02578839	      1.48581788	     -2.76307435	    -50.99597937	      9.56042239	     -1.74637766	      0.02558040	     -0.48301696	     -3.31599387	     20.97615968	     -3.40468921	      0.94473225	     -0.02138609	     -1.00501789	      3.31599387	    -20.97615968	      3.40468921	      0.28075727	      0.00368718	     -0.29758878	    216.95112848	     -0.94120999	     37.84869450	    -15.26480951	      5.31384821	     88.17393945	   -216.95112848	      0.94120999	    -37.84869450	      0.06248227	     -7.24109939	     -1.08115738	     80.11512207	    -55.82441035	    -12.42564765	      3.96433705	     -1.52773378	     32.29371041	    -80.11512207	     55.82441035	     12.42564765	      0.80895604	      1.57378286	     -1.72449532	      0.00000000	      0.00000000	      0.00000000	      0.00000000	      0.00000000	      0.00000000	      0.00000000	      0.00000000	      0.00000000	      0.00000000	      0.00000000	      0.00000000	      0.00000000	      0.00000000	      0.00000000	      0.00000000	      0.00000000	      0.00000000	      0.00000000	      0.00000000	      0.00000000	      0.00000000	      0.00000000	      0.00000000	   -511.93849310	     22.41818769	    102.26687322	     -0.05677255	      9.81436268	     -2.37995290	    511.93849310	    -22.41818769	   -102.26687322	     41.03657874	     -8.86384387	    207.31270056	    -44.93950942	     -7.17541758	    -12.87152763	      0.26522450	     -1.65298425	     -0.00450509	     44.93950942	      7.17541758	     12.87152763	     -5.40615322	      1.10936836	     18.25653333	    220.22988376	     98.43370508	     47.29399907	    522.53431391
      0.37808750	      0.00561687	      0.00120284	     89.99998384	     35.59853704	     12.20650991	    779.05207019	    367.83759214	     10.64213684	      0.94024750	      0.00000000	      0.00000000	      0.00000000	      0.00000000	      0.00000000	      0.00000000	      0.00000001	      0.00000000	      0.03313204	      0.02605924	      0.03620828	      0.03259795	      0.06233500	      0.06012393	      0.05657709	      0.04871202	      0.04303653	      0.03779450	      0.01525851	      0.01651186	      0.06550154	      0.04489616	      0.06858579	      0.03992796	      0.16442949	      0.09067761	      0.03844942	      0.00552614	     -0.00266017	     -0.12978820	     -0.23583812	     -0.27794125	      0.00000079	     -0.32847694	      0.00000060	     -0.00000086	      2.76307435	     50.99597937	     -9.56042239	      5.21997485	     -0.02578839	      1.48581788	     -2.76307435	    -50.99597937	      9.56042239	     -1.74637766	      0.02558040	     -0.48301696	     -3.31599387	     20.97615968	     -3.40468921	      0.94473225	     -0.02138609	     -1.00501789	      3.31599387	    -20.97615968	      3.40468921	      0.28075727	      0.00368718	     -0.29758878	    217.26665164	     -1.02199994	     36.91974891	    -14.88525901	      5.30948798	     88.30381804	   -217.26665164	      1.02199994	    -36.91974891	      0.05557981	     -7.21222936	     -1.08626545	     80.02184286	    -55.84364410	    -12.89352705	      4.15007794	     -1.53002478	     32.25688233	    -80.02184286	     55.84364410	     12.89352705	      0.81080969	      1.58952457	     -1.72554025	      0.00000000	      0.00000000	      0.00000000	      0.00000000	      0.00000000	      0.00000000	      0.00000000	      0.00000000	      0.00000000	      0.00000000	      0.00000000	      0.00000000	      0.00000000	      0.00000000	      0.00000000	      0.00000000	      0.00000000	      0.00000000	      0.00000000	      0.00000000	      0.00000000	      0.00000000	      0.00000000	      0.00000000	   -510.58422704	     22.54411396	    103.83171012	     -0.05974563	      9.86009166	     -2.38000891	    510.58422704	    -22.54411396	   -103.83171012	     41.66753492	     -8.86157280	    206.76622377	    -45.49343480	     -7.26482412	    -12.89398388	      0.26762924	     -1.66790586	     -0.00450331	     45.49343480	      7.26482412	     12.89398388	     -5.41722105	      1.12130346	     18.48161574	    220.38355260	     98.42891323	     47.84020380	    521.52230441
